<?xml version="1.0" standalone="no"?><!DOCTYPE svg PUBLIC "-//W3C//DTD SVG 1.1//EN" "http://www.w3.org/Graphics/SVG/1.1/DTD/svg11.dtd"><svg t="1687033157313" class="icon" viewBox="0 0 1024 1024" version="1.1" xmlns="http://www.w3.org/2000/svg" p-id="4537" xmlns:xlink="http://www.w3.org/1999/xlink" width="32" height="32"><path d="M428.8 494.933333H138.666667c-17.066667 0-32-14.933333-32-32V172.8c0-17.066667 14.933333-32 32-32h290.133333c17.066667 0 32 14.933333 32 32v290.133333c0 17.066667-14.933333 32-32 32zM138.666667 162.133333c-6.4 0-10.666667 4.266667-10.666667 10.666667v290.133333c0 6.4 4.266667 10.666667 10.666667 10.666667h290.133333c6.4 0 10.666667-4.266667 10.666667-10.666667V172.8c0-6.4-4.266667-10.666667-10.666667-10.666667H138.666667z" fill="#108EE9" p-id="4538"></path><path d="M755.2 494.933333c-2.133333 0-6.4 0-8.533333-2.133333L552.533333 298.666667c-2.133333-2.133333-2.133333-4.266667-2.133333-8.533334s2.133333-6.4 2.133333-8.533333L746.666667 87.466667c4.266667-4.266667 10.666667-4.266667 14.933333 0l194.133333 194.133333c4.266667 4.266667 4.266667 10.666667 0 14.933333L761.6 490.666667c0 4.266667-4.266667 4.266667-6.4 4.266666zM576 290.133333l179.2 179.2 179.2-179.2-179.2-179.2-179.2 179.2z" fill="#ED1E79" p-id="4539"></path><path d="M428.8 938.666667H138.666667c-17.066667 0-32-14.933333-32-32V616.533333c0-17.066667 14.933333-32 32-32h290.133333c17.066667 0 32 14.933333 32 32v290.133334c0 17.066667-14.933333 32-32 32zM138.666667 605.866667c-6.4 0-10.666667 4.266667-10.666667 10.666666v290.133334c0 6.4 4.266667 10.666667 10.666667 10.666666h290.133333c6.4 0 10.666667-4.266667 10.666667-10.666666V616.533333c0-6.4-4.266667-10.666667-10.666667-10.666666H138.666667zM872.533333 938.666667H582.4c-17.066667 0-32-14.933333-32-32V616.533333c0-17.066667 14.933333-32 32-32h290.133333c17.066667 0 32 14.933333 32 32v290.133334c0 17.066667-14.933333 32-32 32zM582.4 605.866667c-6.4 0-10.666667 4.266667-10.666667 10.666666v290.133334c0 6.4 4.266667 10.666667 10.666667 10.666666h290.133333c6.4 0 10.666667-4.266667 10.666667-10.666666V616.533333c0-6.4-4.266667-10.666667-10.666667-10.666666H582.4z" fill="#108EE9" p-id="4540"></path></svg>