<?xml version="1.0" standalone="no"?><!DOCTYPE svg PUBLIC "-//W3C//DTD SVG 1.1//EN" "http://www.w3.org/Graphics/SVG/1.1/DTD/svg11.dtd"><svg t="1687460707422" class="icon" viewBox="0 0 1024 1024" version="1.1" xmlns="http://www.w3.org/2000/svg" p-id="7319" xmlns:xlink="http://www.w3.org/1999/xlink" width="32" height="32"><path d="M810.666667 85.333333a42.666667 42.666667 0 0 1 42.666666 42.666667v362.666667h-85.333333V170.666667H170.666667v640h234.666666v85.333333H128a42.666667 42.666667 0 0 1-42.666667-42.666667V128a42.666667 42.666667 0 0 1 42.666667-42.666667h682.666667zM256 341.333333V256h426.666667v85.333333H256z m0 170.666667v-85.333333h298.666667v85.333333H256z" fill="#1768E4" p-id="7320"></path><path d="M874.666667 896h-42.666667v-85.333333h-85.333333v85.333333h-42.666667v-85.333333h-85.333333v85.333333h-42.666667v-170.666667H640a42.666667 42.666667 0 0 0 42.666667-42.666666v-42.666667h85.333333v42.666667a42.666667 42.666667 0 0 0 42.666667 42.666666h64v170.666667z m42.666666-256H853.333333v-42.666667a42.666667 42.666667 0 0 0-42.666666-42.666666h-170.666667a42.666667 42.666667 0 0 0-42.666667 42.666666v42.666667h-64a42.666667 42.666667 0 0 0-42.666666 42.666667v256a42.666667 42.666667 0 0 0 42.666666 42.666666h384a42.666667 42.666667 0 0 0 42.666667-42.666666v-256a42.666667 42.666667 0 0 0-42.666667-42.666667z" fill="#8BB3F1" p-id="7321"></path></svg>