<?xml version="1.0" standalone="no"?><!DOCTYPE svg PUBLIC "-//W3C//DTD SVG 1.1//EN" "http://www.w3.org/Graphics/SVG/1.1/DTD/svg11.dtd"><svg t="1687460519820" class="icon" viewBox="0 0 1204 1024" version="1.1" xmlns="http://www.w3.org/2000/svg" p-id="6572" xmlns:xlink="http://www.w3.org/1999/xlink" width="37.625" height="32"><path d="M655.209412 1002.315294H114.688A114.657882 114.657882 0 0 1 0 887.567059V114.657882A114.688 114.688 0 0 1 114.688 0h540.521412a114.688 114.688 0 0 1 114.688 114.657882v772.939294a114.657882 114.657882 0 0 1-114.688 114.688" fill="#F9D11F" p-id="6573"></path><path d="M1172.48 773.571765l-179.621647-179.621647c76.318118-126.765176 60.205176-293.586824-49.091765-402.974118-122.518588-122.639059-324.577882-128.391529-453.511529-12.468706-141.733647 127.457882-146.100706 345.840941-13.071059 478.870588 109.387294 109.357176 276.299294 125.530353 403.064471 49.152l179.621647 179.621647a74.541176 74.541176 0 0 0 105.411764 0l7.198118-7.137882a74.541176 74.541176 0 0 0 0-105.411765" fill="#F83CB6" p-id="6574"></path><path d="M768.783059 99.629176c-113.724235-20.329412-236.032 19.034353-316.175059 118.66353-96.075294 119.356235-95.774118 293.285647 0.602353 412.400941 80.414118 99.508706 202.932706 138.270118 316.656941 117.338353V114.657882a118.061176 118.061176 0 0 0-1.084235-15.028706" fill="#D51782" p-id="6575"></path><path d="M839.107765 295.454118a182.000941 182.000941 0 1 1-257.445647 257.355294 182.000941 182.000941 0 0 1 257.445647-257.355294M87.130353 242.477176h261.481412V121.434353H87.130353zM87.130353 872.96h381.680941v-121.012706H87.130353zM87.160471 678.942118h123.00047v-121.012706H87.160471z" fill="#FFFFFF" p-id="6576"></path><path d="M860.039529 320.451765a181.007059 181.007059 0 0 0-90.142117-68.156236v343.642353a180.886588 180.886588 0 0 0 90.142117-68.065882 182.693647 182.693647 0 0 0 0-207.420235" fill="#EFF0F4" p-id="6577"></path></svg>