<svg xmlns="http://www.w3.org/2000/svg" xmlns:xlink="http://www.w3.org/1999/xlink" viewBox="0 0 286 64"><g><g><defs><path id="SVGID_1_" d="M47.5 17.6L25 4.8v52.6l9-5.2V37.4l6.8 3.9-.1-10.1-6.7-3.9v-5.9l13.5 7.9z"/></defs><clipPath id="SVGID_2_"><use xlink:href="#SVGID_1_" overflow="visible"/></clipPath><g clip-path="url(#SVGID_2_)"><linearGradient id="SVGID_3_" gradientUnits="userSpaceOnUse" x1="-1.6" y1="335.05" x2="53.6" y2="335.05" gradientTransform="translate(0 -304)"><stop offset="0" stop-color="#ff6f00"/><stop offset="1" stop-color="#ffa800"/></linearGradient><path d="M-1.6 4.6h55.2v52.9H-1.6V4.6z" fill="url(#SVGID_3_)"/></g></g></g><g><g><defs><path id="SVGID_4_" d="M.5 17.6L23 4.8v52.6l-9-5.2V21.4L.5 29.3z"/></defs><clipPath id="SVGID_5_"><use xlink:href="#SVGID_4_" overflow="visible"/></clipPath><g clip-path="url(#SVGID_5_)"><linearGradient id="SVGID_6_" gradientUnits="userSpaceOnUse" x1="-1.9" y1="335.05" x2="53.3" y2="335.05" gradientTransform="translate(0 -304)"><stop offset="0" stop-color="#ff6f00"/><stop offset="1" stop-color="#ffa800"/></linearGradient><path d="M-1.9 4.6h55.2v52.9H-1.9V4.6z" fill="url(#SVGID_6_)"/></g></g></g><path style="fill:#425066" d="M88.2 21.1h-10v27.7h-5.6V21.1h-10v-4.5h25.6v4.5z"/><path style="fill:#425066" d="M94.9 49.2c-3.4 0-6.2-1.1-8.3-3.2-2.1-2.1-3.2-5-3.2-8.6v-.7c0-2.2.4-4.4 1.4-6.4.9-1.8 2.2-3.3 3.9-4.4 1.7-1.1 3.6-1.6 5.6-1.6 3.3 0 5.8 1 7.6 3.1s2.7 5 2.7 8.8v2.2H88.9c.1 1.8.8 3.4 2 4.7 1.2 1.2 2.7 1.8 4.4 1.7 2.4.1 4.6-1.1 6-3l2.9 2.8c-1 1.4-2.3 2.6-3.8 3.3-1.8 1-3.6 1.4-5.5 1.3zm-.6-20.5c-1.4-.1-2.7.5-3.6 1.5-1 1.2-1.6 2.7-1.7 4.3h10.3v-.4c-.1-1.8-.6-3.2-1.4-4.1-1-.8-2.3-1.4-3.6-1.3zm19.4-3.9l.2 2.8c1.7-2.1 4.3-3.3 7-3.2 5 0 7.5 2.9 7.6 8.6v15.8h-5.4V33.3c0-1.5-.3-2.6-1-3.4-.7-.7-1.7-1.1-3.2-1.1-2.1-.1-4 1.1-4.9 2.9v17h-5.4v-24l5.1.1zm32.2 17.5c0-.9-.4-1.7-1.2-2.2-1.2-.7-2.6-1.1-3.9-1.3-1.6-.3-3.1-.8-4.6-1.5-2.7-1.3-4-3.2-4-5.6 0-2 1-4 2.6-5.2 1.7-1.4 4-2.1 6.6-2.1 2.9 0 5.2.7 6.9 2.1 1.7 1.3 2.7 3.4 2.6 5.5h-5.4c0-1-.4-1.9-1.2-2.6-.9-.7-1.9-1.1-3.1-1-1 0-2 .2-2.9.8-.7.5-1.1 1.3-1.1 2.2 0 .8.4 1.5 1 1.9.7.5 2.1.9 4.2 1.4 1.7.3 3.4.9 5 1.7 1.1.5 2 1.3 2.7 2.3.6 1 .9 2.1.9 3.3 0 2.1-1 4-2.7 5.2-1.8 1.3-4.1 2-7 2-1.8 0-3.6-.3-5.2-1.1-1.4-.6-2.7-1.6-3.6-2.9-.8-1.2-1.3-2.6-1.3-4h5.2c0 1.1.5 2.2 1.4 2.9 1 .7 2.3 1.1 3.5 1 1.4 0 2.5-.3 3.2-.8 1-.4 1.4-1.2 1.4-2zm8.1-5.7c0-2.2.4-4.4 1.4-6.3.9-1.8 2.2-3.3 3.9-4.3 1.8-1 3.8-1.6 5.8-1.5 3.2 0 5.9 1 7.9 3.1s3.1 4.8 3.3 8.3v1.3c0 2.2-.4 4.3-1.4 6.3-.8 1.8-2.2 3.3-3.9 4.3-1.8 1-3.8 1.6-5.9 1.5-3.4 0-6.1-1.1-8.1-3.4-2-2.2-3-5.2-3.1-9l.1-.3zm5.3.5c0 2.5.5 4.4 1.5 5.8 1.8 2.3 5.1 2.8 7.5 1 .4-.3.7-.6 1-1 1-1.4 1.5-3.5 1.5-6.2 0-2.4-.5-4.3-1.6-5.8-1.7-2.3-5-2.8-7.4-1.1-.4.3-.8.7-1.1 1-.8 1.4-1.4 3.5-1.4 6.3zm33.1-7.3c-.7-.1-1.5-.2-2.2-.2-2.5 0-4.1.9-5 2.8v16.4h-5.4v-24h5.1l.1 2.7c1.3-2.1 3.1-3.1 5.4-3.1.6 0 1.3.1 1.9.3l.1 5.1zm22.5 5.3h-13v13.7h-5.6V16.6h20.5v4.5h-14.9v9.6h13v4.4zm10.7 13.7h-5.4V16.5h5.4v32.3zm3.9-12.2c0-2.2.4-4.4 1.4-6.3.9-1.8 2.2-3.3 3.9-4.3 1.8-1 3.8-1.6 5.8-1.5 3.2 0 5.9 1 7.9 3.1s3.1 4.8 3.3 8.3v1.3c0 2.2-.4 4.3-1.3 6.3-.8 1.8-2.2 3.3-3.9 4.3-1.8 1-3.8 1.6-5.9 1.5-3.4 0-6.1-1.1-8.1-3.4-2-2.2-3.1-5.2-3.1-9v-.3zm5.4.5c0 2.5.5 4.4 1.5 5.8 1 1.4 2.6 2.2 4.3 2.1 1.7.1 3.3-.7 4.2-2.1 1-1.4 1.5-3.5 1.5-6.2 0-2.4-.5-4.3-1.6-5.8-1.7-2.3-5-2.8-7.4-1.1-.4.3-.8.7-1.1 1-.9 1.4-1.4 3.5-1.4 6.3zm41.2 4.3l3.8-16.5h5.2l-6.5 24h-4.4l-5.1-16.5-5.1 16.5h-4.4l-6.6-24h5.3l3.9 16.4 4.9-16.4h4.1l4.9 16.5z"/></svg>
