<?xml version="1.0" standalone="no"?><!DOCTYPE svg PUBLIC "-//W3C//DTD SVG 1.1//EN" "http://www.w3.org/Graphics/SVG/1.1/DTD/svg11.dtd"><svg t="1687177369576" class="icon" viewBox="0 0 1024 1024" version="1.1" xmlns="http://www.w3.org/2000/svg" p-id="1866" xmlns:xlink="http://www.w3.org/1999/xlink" width="32" height="32"><path d="M420.693333 85.333333C353.28 85.333333 298.666667 139.946667 298.666667 207.36v71.68h183.04c16.64 0 30.293333 24.32 30.293333 40.96H207.36C139.946667 320 85.333333 374.613333 85.333333 442.026667v161.322666c0 67.413333 54.613333 122.026667 122.026667 122.026667h50.346667v-114.346667c0-67.413333 54.186667-122.026667 121.6-122.026666h224c67.413333 0 122.026667-54.229333 122.026666-121.642667V207.36C725.333333 139.946667 670.72 85.333333 603.306667 85.333333z m-30.72 68.693334c17.066667 0 30.72 5.12 30.72 30.293333s-13.653333 38.016-30.72 38.016c-16.64 0-30.293333-12.8-30.293333-37.973333s13.653333-30.336 30.293333-30.336z" fill="#3C78AA" p-id="1867"></path><path d="M766.250667 298.666667v114.346666a121.6 121.6 0 0 1-121.6 121.984H420.693333A121.6 121.6 0 0 0 298.666667 656.597333v160a122.026667 122.026667 0 0 0 122.026666 122.026667h182.613334A122.026667 122.026667 0 0 0 725.333333 816.64v-71.68h-183.082666c-16.64 0-30.250667-24.32-30.250667-40.96h304.64A122.026667 122.026667 0 0 0 938.666667 581.973333v-161.28a122.026667 122.026667 0 0 0-122.026667-122.026666zM354.986667 491.221333l-0.170667 0.170667c0.512-0.085333 1.066667-0.042667 1.621333-0.170667z m279.04 310.442667c16.64 0 30.293333 12.8 30.293333 37.973333a30.293333 30.293333 0 0 1-30.293333 30.293334c-17.066667 0-30.72-5.12-30.72-30.293334s13.653333-37.973333 30.72-37.973333z" fill="#FDD835" p-id="1868"></path></svg>